<svg width="114" height="46" viewBox="0 0 114 46" fill="none" xmlns="http://www.w3.org/2000/svg">
<rect x="0.5" y="0.5" width="113" height="45" rx="4.5" fill="white" stroke="black"/>
<path d="M36.296 13.408C36.9147 13.408 37.4453 13.52 37.888 13.744C38.3307 13.968 38.6693 14.2907 38.904 14.712C39.1387 15.1333 39.256 15.6347 39.256 16.216C39.256 16.792 39.1387 17.2907 38.904 17.712C38.6693 18.128 38.3307 18.448 37.888 18.672C37.4453 18.8907 36.9147 19 36.296 19H34.64V13.408H36.296ZM36.296 18.536C37.0747 18.536 37.6667 18.3333 38.072 17.928C38.4827 17.5173 38.688 16.9467 38.688 16.216C38.688 15.48 38.4827 14.9067 38.072 14.496C37.6667 14.08 37.0747 13.872 36.296 13.872H35.2V18.536H36.296ZM42.2004 19.064C41.7898 19.064 41.4191 18.9733 41.0884 18.792C40.7631 18.6053 40.5044 18.344 40.3124 18.008C40.1258 17.6667 40.0324 17.2693 40.0324 16.816C40.0324 16.3627 40.1284 15.968 40.3204 15.632C40.5124 15.2907 40.7738 15.0293 41.1044 14.848C41.4351 14.6613 41.8058 14.568 42.2164 14.568C42.6271 14.568 42.9978 14.6613 43.3284 14.848C43.6644 15.0293 43.9258 15.2907 44.1124 15.632C44.3044 15.968 44.4004 16.3627 44.4004 16.816C44.4004 17.264 44.3044 17.6587 44.1124 18C43.9204 18.3413 43.6564 18.6053 43.3204 18.792C42.9844 18.9733 42.6111 19.064 42.2004 19.064ZM42.2004 18.576C42.4884 18.576 42.7551 18.512 43.0004 18.384C43.2458 18.2507 43.4431 18.0533 43.5924 17.792C43.7471 17.5253 43.8244 17.2 43.8244 16.816C43.8244 16.432 43.7498 16.1093 43.6004 15.848C43.4511 15.5813 43.2538 15.384 43.0084 15.256C42.7631 15.1227 42.4964 15.056 42.2084 15.056C41.9204 15.056 41.6538 15.1227 41.4084 15.256C41.1631 15.384 40.9658 15.5813 40.8164 15.848C40.6724 16.1093 40.6004 16.432 40.6004 16.816C40.6004 17.2 40.6724 17.5253 40.8164 17.792C40.9658 18.0533 41.1604 18.2507 41.4004 18.384C41.6458 18.512 41.9124 18.576 42.2004 18.576ZM51.1813 14.632L49.8133 19H49.2533L48.0453 15.336L46.8372 19H46.2693L44.9013 14.632H45.4693L46.5573 18.432L47.7813 14.632H48.3413L49.5493 18.44L50.6293 14.632H51.1813ZM53.9927 14.552C54.5154 14.552 54.942 14.7147 55.2727 15.04C55.6034 15.36 55.7687 15.8267 55.7687 16.44V19H55.2167V16.504C55.2167 16.0293 55.0967 15.6667 54.8567 15.416C54.622 15.1653 54.2994 15.04 53.8887 15.04C53.4674 15.04 53.1314 15.1733 52.8807 15.44C52.63 15.7067 52.5047 16.0987 52.5047 16.616V19H51.9447V14.632H52.5047V15.376C52.6434 15.1093 52.8434 14.9067 53.1047 14.768C53.366 14.624 53.662 14.552 53.9927 14.552ZM57.5672 13.08V19H57.0072V13.08H57.5672ZM60.7473 19.064C60.3366 19.064 59.966 18.9733 59.6353 18.792C59.31 18.6053 59.0513 18.344 58.8593 18.008C58.6726 17.6667 58.5793 17.2693 58.5793 16.816C58.5793 16.3627 58.6753 15.968 58.8673 15.632C59.0593 15.2907 59.3206 15.0293 59.6513 14.848C59.982 14.6613 60.3526 14.568 60.7633 14.568C61.174 14.568 61.5446 14.6613 61.8753 14.848C62.2113 15.0293 62.4726 15.2907 62.6593 15.632C62.8513 15.968 62.9473 16.3627 62.9473 16.816C62.9473 17.264 62.8513 17.6587 62.6593 18C62.4673 18.3413 62.2033 18.6053 61.8673 18.792C61.5313 18.9733 61.158 19.064 60.7473 19.064ZM60.7473 18.576C61.0353 18.576 61.302 18.512 61.5473 18.384C61.7926 18.2507 61.99 18.0533 62.1393 17.792C62.294 17.5253 62.3713 17.2 62.3713 16.816C62.3713 16.432 62.2966 16.1093 62.1473 15.848C61.998 15.5813 61.8006 15.384 61.5553 15.256C61.31 15.1227 61.0433 15.056 60.7553 15.056C60.4673 15.056 60.2006 15.1227 59.9553 15.256C59.71 15.384 59.5126 15.5813 59.3633 15.848C59.2193 16.1093 59.1473 16.432 59.1473 16.816C59.1473 17.2 59.2193 17.5253 59.3633 17.792C59.5126 18.0533 59.7073 18.2507 59.9473 18.384C60.1926 18.512 60.4593 18.576 60.7473 18.576ZM63.7121 16.808C63.7121 16.36 63.8001 15.968 63.9761 15.632C64.1575 15.2907 64.4055 15.0293 64.7201 14.848C65.0401 14.6613 65.4001 14.568 65.8001 14.568C66.2161 14.568 66.5735 14.664 66.8721 14.856C67.1761 15.048 67.3948 15.2933 67.5281 15.592V14.632H68.0881V19H67.5281V18.032C67.3895 18.3307 67.1681 18.5787 66.8641 18.776C66.5655 18.968 66.2081 19.064 65.7921 19.064C65.3975 19.064 65.0401 18.9707 64.7201 18.784C64.4055 18.5973 64.1575 18.3333 63.9761 17.992C63.8001 17.6507 63.7121 17.256 63.7121 16.808ZM67.5281 16.816C67.5281 16.464 67.4561 16.1547 67.3121 15.888C67.1681 15.6213 66.9708 15.416 66.7201 15.272C66.4748 15.128 66.2028 15.056 65.9041 15.056C65.5948 15.056 65.3175 15.1253 65.0721 15.264C64.8268 15.4027 64.6321 15.6053 64.4881 15.872C64.3495 16.1333 64.2801 16.4453 64.2801 16.808C64.2801 17.1653 64.3495 17.48 64.4881 17.752C64.6321 18.0187 64.8268 18.224 65.0721 18.368C65.3175 18.5067 65.5948 18.576 65.9041 18.576C66.2028 18.576 66.4748 18.504 66.7201 18.36C66.9708 18.216 67.1681 18.0107 67.3121 17.744C67.4561 17.4773 67.5281 17.168 67.5281 16.816ZM69.1106 16.808C69.1106 16.36 69.2012 15.968 69.3826 15.632C69.5639 15.2907 69.8119 15.0293 70.1266 14.848C70.4466 14.6613 70.8066 14.568 71.2066 14.568C71.5906 14.568 71.9372 14.6613 72.2466 14.848C72.5559 15.0347 72.7826 15.2773 72.9266 15.576V13.08H73.4866V19H72.9266V18.024C72.7932 18.328 72.5746 18.5787 72.2706 18.776C71.9666 18.968 71.6092 19.064 71.1986 19.064C70.7986 19.064 70.4386 18.9707 70.1186 18.784C69.8039 18.5973 69.5559 18.3333 69.3746 17.992C69.1986 17.6507 69.1106 17.256 69.1106 16.808ZM72.9266 16.816C72.9266 16.464 72.8546 16.1547 72.7106 15.888C72.5666 15.6213 72.3692 15.416 72.1186 15.272C71.8732 15.128 71.6012 15.056 71.3026 15.056C70.9932 15.056 70.7159 15.1253 70.4706 15.264C70.2252 15.4027 70.0306 15.6053 69.8866 15.872C69.7479 16.1333 69.6786 16.4453 69.6786 16.808C69.6786 17.1653 69.7479 17.48 69.8866 17.752C70.0306 18.0187 70.2252 18.224 70.4706 18.368C70.7159 18.5067 70.9932 18.576 71.3026 18.576C71.6012 18.576 71.8732 18.504 72.1186 18.36C72.3692 18.216 72.5666 18.0107 72.7106 17.744C72.8546 17.4773 72.9266 17.168 72.9266 16.816ZM78.8723 19.064C78.4616 19.064 78.091 18.9733 77.7603 18.792C77.435 18.6053 77.1763 18.344 76.9843 18.008C76.7976 17.6667 76.7043 17.2693 76.7043 16.816C76.7043 16.3627 76.8003 15.968 76.9923 15.632C77.1843 15.2907 77.4456 15.0293 77.7763 14.848C78.107 14.6613 78.4776 14.568 78.8883 14.568C79.299 14.568 79.6696 14.6613 80.0003 14.848C80.3363 15.0293 80.5976 15.2907 80.7843 15.632C80.9763 15.968 81.0723 16.3627 81.0723 16.816C81.0723 17.264 80.9763 17.6587 80.7843 18C80.5923 18.3413 80.3283 18.6053 79.9923 18.792C79.6563 18.9733 79.283 19.064 78.8723 19.064ZM78.8723 18.576C79.1603 18.576 79.427 18.512 79.6723 18.384C79.9176 18.2507 80.115 18.0533 80.2643 17.792C80.419 17.5253 80.4963 17.2 80.4963 16.816C80.4963 16.432 80.4216 16.1093 80.2723 15.848C80.123 15.5813 79.9256 15.384 79.6803 15.256C79.435 15.1227 79.1683 15.056 78.8803 15.056C78.5923 15.056 78.3256 15.1227 78.0803 15.256C77.835 15.384 77.6376 15.5813 77.4883 15.848C77.3443 16.1093 77.2723 16.432 77.2723 16.816C77.2723 17.2 77.3443 17.5253 77.4883 17.792C77.6376 18.0533 77.8323 18.2507 78.0723 18.384C78.3176 18.512 78.5843 18.576 78.8723 18.576ZM84.1411 14.552C84.6638 14.552 85.0905 14.7147 85.4211 15.04C85.7518 15.36 85.9171 15.8267 85.9171 16.44V19H85.3651V16.504C85.3651 16.0293 85.2451 15.6667 85.0051 15.416C84.7705 15.1653 84.4478 15.04 84.0371 15.04C83.6158 15.04 83.2798 15.1733 83.0291 15.44C82.7785 15.7067 82.6531 16.0987 82.6531 16.616V19H82.0931V14.632H82.6531V15.376C82.7918 15.1093 82.9918 14.9067 83.2531 14.768C83.5145 14.624 83.8105 14.552 84.1411 14.552ZM90.0789 15.104V17.816C90.0789 18.0827 90.1296 18.2667 90.2309 18.368C90.3323 18.4693 90.5109 18.52 90.7669 18.52H91.2789V19H90.6789C90.2843 19 89.9909 18.9093 89.7989 18.728C89.6069 18.5413 89.5109 18.2373 89.5109 17.816V15.104H88.9029V14.632H89.5109V13.536H90.0789V14.632H91.2789V15.104H90.0789ZM94.2825 14.552C94.6132 14.552 94.9092 14.6213 95.1705 14.76C95.4372 14.8987 95.6452 15.112 95.7945 15.4C95.9492 15.6827 96.0265 16.0293 96.0265 16.44V19H95.4745V16.504C95.4745 16.0293 95.3545 15.6667 95.1145 15.416C94.8798 15.1653 94.5572 15.04 94.1465 15.04C93.7252 15.04 93.3892 15.1733 93.1385 15.44C92.8878 15.7067 92.7625 16.0987 92.7625 16.616V19H92.2025V13.08H92.7625V15.376C92.9012 15.1147 93.1038 14.912 93.3705 14.768C93.6425 14.624 93.9465 14.552 94.2825 14.552ZM101.217 16.592C101.217 16.784 101.212 16.9307 101.201 17.032H97.577C97.593 17.3627 97.673 17.6453 97.817 17.88C97.961 18.1147 98.1503 18.2933 98.385 18.416C98.6197 18.5333 98.8757 18.592 99.153 18.592C99.5157 18.592 99.8197 18.504 100.065 18.328C100.316 18.152 100.481 17.9147 100.561 17.616H101.153C101.046 18.0427 100.817 18.392 100.465 18.664C100.118 18.9307 99.681 19.064 99.153 19.064C98.7423 19.064 98.3743 18.9733 98.049 18.792C97.7237 18.6053 97.4677 18.344 97.281 18.008C97.0997 17.6667 97.009 17.2693 97.009 16.816C97.009 16.3627 97.0997 15.9653 97.281 15.624C97.4623 15.2827 97.7157 15.0213 98.041 14.84C98.3663 14.6587 98.737 14.568 99.153 14.568C99.569 14.568 99.9317 14.6587 100.241 14.84C100.556 15.0213 100.796 15.2667 100.961 15.576C101.132 15.88 101.217 16.2187 101.217 16.592ZM100.649 16.576C100.654 16.2507 100.588 15.9733 100.449 15.744C100.316 15.5147 100.132 15.3413 99.897 15.224C99.6623 15.1067 99.4063 15.048 99.129 15.048C98.713 15.048 98.3583 15.1813 98.065 15.448C97.7717 15.7147 97.609 16.0907 97.577 16.576H100.649Z" fill="black"/>
<path d="M39.916 30.012H35.842L35.142 32H33.476L36.962 22.256H38.81L42.296 32H40.616L39.916 30.012ZM39.468 28.71L37.886 24.188L36.29 28.71H39.468ZM45.4077 25.42C45.6784 25.0653 46.0471 24.7667 46.5137 24.524C46.9804 24.2813 47.5077 24.16 48.0957 24.16C48.7677 24.16 49.3791 24.328 49.9297 24.664C50.4897 24.9907 50.9284 25.4527 51.2457 26.05C51.5631 26.6473 51.7217 27.3333 51.7217 28.108C51.7217 28.8827 51.5631 29.578 51.2457 30.194C50.9284 30.8007 50.4897 31.2767 49.9297 31.622C49.3791 31.958 48.7677 32.126 48.0957 32.126C47.5077 32.126 46.9851 32.0093 46.5277 31.776C46.0704 31.5333 45.6971 31.2347 45.4077 30.88V35.668H43.8117V24.286H45.4077V25.42ZM50.0977 28.108C50.0977 27.576 49.9857 27.1187 49.7617 26.736C49.5471 26.344 49.2577 26.05 48.8937 25.854C48.5391 25.6487 48.1564 25.546 47.7457 25.546C47.3444 25.546 46.9617 25.6487 46.5977 25.854C46.2431 26.0593 45.9537 26.358 45.7297 26.75C45.5151 27.142 45.4077 27.604 45.4077 28.136C45.4077 28.668 45.5151 29.1347 45.7297 29.536C45.9537 29.928 46.2431 30.2267 46.5977 30.432C46.9617 30.6373 47.3444 30.74 47.7457 30.74C48.1564 30.74 48.5391 30.6373 48.8937 30.432C49.2577 30.2173 49.5471 29.9093 49.7617 29.508C49.9857 29.1067 50.0977 28.64 50.0977 28.108ZM54.896 25.42C55.1667 25.0653 55.5353 24.7667 56.002 24.524C56.4687 24.2813 56.996 24.16 57.584 24.16C58.256 24.16 58.8673 24.328 59.418 24.664C59.978 24.9907 60.4167 25.4527 60.734 26.05C61.0513 26.6473 61.21 27.3333 61.21 28.108C61.21 28.8827 61.0513 29.578 60.734 30.194C60.4167 30.8007 59.978 31.2767 59.418 31.622C58.8673 31.958 58.256 32.126 57.584 32.126C56.996 32.126 56.4733 32.0093 56.016 31.776C55.5587 31.5333 55.1853 31.2347 54.896 30.88V35.668H53.3V24.286H54.896V25.42ZM59.586 28.108C59.586 27.576 59.474 27.1187 59.25 26.736C59.0353 26.344 58.746 26.05 58.382 25.854C58.0273 25.6487 57.6447 25.546 57.234 25.546C56.8327 25.546 56.45 25.6487 56.086 25.854C55.7313 26.0593 55.442 26.358 55.218 26.75C55.0033 27.142 54.896 27.604 54.896 28.136C54.896 28.668 55.0033 29.1347 55.218 29.536C55.442 29.928 55.7313 30.2267 56.086 30.432C56.45 30.6373 56.8327 30.74 57.234 30.74C57.6447 30.74 58.0273 30.6373 58.382 30.432C58.746 30.2173 59.0353 29.9093 59.25 29.508C59.474 29.1067 59.586 28.64 59.586 28.108ZM69.631 32.098C68.9777 32.098 68.3897 31.986 67.867 31.762C67.3443 31.5287 66.9337 31.202 66.635 30.782C66.3363 30.362 66.187 29.872 66.187 29.312H67.895C67.9323 29.732 68.0957 30.0773 68.385 30.348C68.6837 30.6187 69.099 30.754 69.631 30.754C70.1817 30.754 70.611 30.6233 70.919 30.362C71.227 30.0913 71.381 29.746 71.381 29.326C71.381 28.9993 71.283 28.7333 71.087 28.528C70.9003 28.3227 70.6623 28.164 70.373 28.052C70.093 27.94 69.701 27.8187 69.197 27.688C68.5623 27.52 68.0443 27.352 67.643 27.184C67.251 27.0067 66.915 26.736 66.635 26.372C66.355 26.008 66.215 25.5227 66.215 24.916C66.215 24.356 66.355 23.866 66.635 23.446C66.915 23.026 67.307 22.704 67.811 22.48C68.315 22.256 68.8983 22.144 69.561 22.144C70.5037 22.144 71.2737 22.382 71.871 22.858C72.4777 23.3247 72.8137 23.9687 72.879 24.79H71.115C71.087 24.4353 70.919 24.132 70.611 23.88C70.303 23.628 69.897 23.502 69.393 23.502C68.9357 23.502 68.5623 23.6187 68.273 23.852C67.9837 24.0853 67.839 24.4213 67.839 24.86C67.839 25.1587 67.9277 25.406 68.105 25.602C68.2917 25.7887 68.525 25.938 68.805 26.05C69.085 26.162 69.4677 26.2833 69.953 26.414C70.597 26.5913 71.1197 26.7687 71.521 26.946C71.9317 27.1233 72.277 27.3987 72.557 27.772C72.8463 28.136 72.991 28.626 72.991 29.242C72.991 29.7367 72.8557 30.2033 72.585 30.642C72.3237 31.0807 71.9363 31.4353 71.423 31.706C70.919 31.9673 70.3217 32.098 69.631 32.098ZM76.7362 25.588V29.858C76.7362 30.1473 76.8016 30.3573 76.9322 30.488C77.0722 30.6093 77.3056 30.67 77.6322 30.67H78.6122V32H77.3522C76.6336 32 76.0829 31.832 75.7002 31.496C75.3176 31.16 75.1262 30.614 75.1262 29.858V25.588H74.2162V24.286H75.1262V22.368H76.7362V24.286H78.6122V25.588H76.7362ZM83.4292 32.126C82.7012 32.126 82.0432 31.9627 81.4552 31.636C80.8672 31.3 80.4052 30.8333 80.0692 30.236C79.7332 29.6293 79.5652 28.9293 79.5652 28.136C79.5652 27.352 79.7379 26.6567 80.0832 26.05C80.4285 25.4433 80.8999 24.9767 81.4972 24.65C82.0945 24.3233 82.7619 24.16 83.4992 24.16C84.2365 24.16 84.9039 24.3233 85.5012 24.65C86.0985 24.9767 86.5699 25.4433 86.9152 26.05C87.2605 26.6567 87.4332 27.352 87.4332 28.136C87.4332 28.92 87.2559 29.6153 86.9012 30.222C86.5465 30.8287 86.0612 31.3 85.4452 31.636C84.8385 31.9627 84.1665 32.126 83.4292 32.126ZM83.4292 30.74C83.8399 30.74 84.2225 30.642 84.5772 30.446C84.9412 30.25 85.2352 29.956 85.4592 29.564C85.6832 29.172 85.7952 28.696 85.7952 28.136C85.7952 27.576 85.6879 27.1047 85.4732 26.722C85.2585 26.33 84.9739 26.036 84.6192 25.84C84.2645 25.644 83.8819 25.546 83.4712 25.546C83.0605 25.546 82.6779 25.644 82.3232 25.84C81.9779 26.036 81.7025 26.33 81.4972 26.722C81.2919 27.1047 81.1892 27.576 81.1892 28.136C81.1892 28.9667 81.3992 29.6107 81.8192 30.068C82.2485 30.516 82.7852 30.74 83.4292 30.74ZM90.6069 25.406C90.8403 25.014 91.1483 24.7107 91.5309 24.496C91.9229 24.272 92.3849 24.16 92.9169 24.16V25.812H92.5109C91.8856 25.812 91.4096 25.9707 91.0829 26.288C90.7656 26.6053 90.6069 27.156 90.6069 27.94V32H89.0109V24.286H90.6069V25.406ZM101.454 27.954C101.454 28.2433 101.435 28.5047 101.398 28.738H95.504C95.5507 29.354 95.7793 29.8487 96.19 30.222C96.6007 30.5953 97.1047 30.782 97.702 30.782C98.5607 30.782 99.1673 30.4227 99.522 29.704H101.244C101.011 30.4133 100.586 30.9967 99.97 31.454C99.3633 31.902 98.6073 32.126 97.702 32.126C96.9647 32.126 96.302 31.9627 95.714 31.636C95.1353 31.3 94.678 30.8333 94.342 30.236C94.0153 29.6293 93.852 28.9293 93.852 28.136C93.852 27.3427 94.0107 26.6473 94.328 26.05C94.6547 25.4433 95.1073 24.9767 95.686 24.65C96.274 24.3233 96.946 24.16 97.702 24.16C98.43 24.16 99.0787 24.3187 99.648 24.636C100.217 24.9533 100.661 25.4013 100.978 25.98C101.295 26.5493 101.454 27.2073 101.454 27.954ZM99.788 27.45C99.7787 26.862 99.5687 26.3907 99.158 26.036C98.7473 25.6813 98.2387 25.504 97.632 25.504C97.0813 25.504 96.61 25.6813 96.218 26.036C95.826 26.3813 95.5927 26.8527 95.518 27.45H99.788Z" fill="black"/>
<path d="M25.49 28.5861C25.1986 29.2653 24.8386 29.913 24.4156 30.5191C23.8506 31.3262 23.3865 31.8839 23.0309 32.1943C22.4784 32.7015 21.8849 32.9625 21.2504 32.9772C20.7959 32.9772 20.2466 32.8478 19.6068 32.5847C18.9649 32.3227 18.3757 32.1943 17.8358 32.1943C17.2708 32.1943 16.6647 32.3227 16.0154 32.5847C15.3672 32.8478 14.8432 32.9856 14.4423 32.9982C13.8351 33.0245 13.228 32.7573 12.6229 32.1943C12.2368 31.8576 11.7538 31.2788 11.174 30.4602C10.5531 29.5879 10.0428 28.5724 9.64293 27.4181C9.21466 26.1691 9 24.9611 9 23.7909C9 22.4514 9.28937 21.295 9.86917 20.3269C10.3077 19.5666 10.9346 18.9321 11.6896 18.4844C12.434 18.0379 13.2838 17.7975 14.1519 17.7878C14.6359 17.7878 15.2704 17.9372 16.0565 18.2318C16.8425 18.5265 17.3476 18.6759 17.5675 18.6759C17.7338 18.6759 18.2925 18.5002 19.2438 18.1519C20.1413 17.8288 20.899 17.6952 21.5198 17.7478C23.2034 17.8835 24.4672 18.5465 25.308 19.7418C23.8032 20.6542 23.0593 21.9305 23.074 23.5689C23.0866 24.8453 23.5507 25.907 24.4598 26.7499C24.8618 27.1345 25.3307 27.4423 25.8436 27.658C25.732 27.9811 25.6142 28.2894 25.49 28.5861V28.5861ZM21.6313 13.4009C21.6313 14.4006 21.2652 15.335 20.538 16.1989C19.6584 17.2259 18.5956 17.8204 17.4433 17.7268C17.4283 17.6011 17.4209 17.4745 17.4213 17.3479C17.4213 16.3872 17.8379 15.3602 18.5819 14.5195C18.9523 14.0944 19.4237 13.7397 19.9951 13.4577C20.5654 13.1799 21.1042 13.0263 21.6114 13C21.625 13.1347 21.6313 13.2683 21.6313 13.4009V13.4009Z" fill="black"/>
</svg>
