<svg width="100" height="100" viewBox="0 0 100 100" fill="none" xmlns="http://www.w3.org/2000/svg">
<path d="M35.075 13.5417C36.2417 11.0833 38.7583 9.375 41.6667 9.375H58.3334C61.2417 9.375 63.7542 11.0833 64.925 13.5417C67.7709 13.5667 69.9917 13.6958 71.975 14.4708C74.3426 15.397 76.4017 16.9709 77.9167 19.0125C79.4459 21.0708 80.1667 23.7083 81.15 27.3375L81.3042 27.9042L81.3125 27.9333L84.9542 41.7833L85.0042 41.7125C85.1792 41.9 85.3459 42.1 85.5084 42.3083C89.2625 47.1167 87.475 54.2667 83.9 68.5625C83.575 69.8667 83.275 71.075 82.9834 72.2L72.6625 59.8125L80.2875 48.625L78.1834 40.6167L68.5 54.8208L54.0667 37.5H59.65C67.5375 37.5 73.3167 37.5 77.5584 38.2375L75.2709 29.5375C74.0625 25.1042 73.6334 23.725 72.8959 22.7375C72.0811 21.6386 70.9736 20.791 69.7 20.2917C68.7834 19.9333 67.675 19.8292 64.9167 19.8C64.3245 21.0444 63.3917 22.0955 62.2266 22.8315C61.0614 23.5675 59.7115 23.9582 58.3334 23.9583H41.6667C40.2885 23.9582 38.9386 23.5675 37.7735 22.8315C36.6083 22.0955 35.6756 21.0444 35.0833 19.8C32.325 19.8292 31.2167 19.9333 30.3 20.2917C29.0249 20.7903 27.9159 21.638 27.1 22.7375C26.3667 23.725 25.9375 25.1042 24.725 29.5375L22.4417 38.2375C26.6833 37.5 32.4625 37.5 40.3542 37.5H45.9333L31.5 54.8208L21.8167 40.6167L19.7083 48.625L27.3333 59.8125L17.0125 72.2C16.7208 71.075 16.4208 69.8667 16.0958 68.5625C12.5208 54.2667 10.7333 47.1167 14.4875 42.3083C14.65 42.1 14.8208 41.9 14.9917 41.7125L15.0417 41.7833L18.6833 27.9333L18.6917 27.9042L18.8458 27.3375C19.8333 23.7083 20.5542 21.0667 22.0792 19.0083C23.5947 16.9683 25.6537 15.3958 28.0208 14.4708C30.0042 13.6958 32.2208 13.5667 35.0708 13.5458L35.075 13.5417Z" fill="#F69800"/>
<path d="M19.175 79.375C20.1458 81.8458 21.2583 83.5708 22.9 84.8541C26.2917 87.5 30.9792 87.5 40.3542 87.5H46.2167L31 65.1833L19.175 79.375ZM53.7834 87.5H59.6459C69.0209 87.5 73.7084 87.5 77.1 84.8541C78.7417 83.5708 79.8542 81.8458 80.825 79.3708L69 65.1833L53.7834 87.5ZM50 81.9541L35.1625 60.1875L50 42.3833L64.8375 60.1875L50 81.9541Z" fill="#F69800"/>
</svg>
