<svg width="231" height="103" viewBox="0 0 231 103" fill="none" xmlns="http://www.w3.org/2000/svg">
<path d="M35.075 15.5417C36.2417 13.0833 38.7583 11.375 41.6667 11.375H58.3334C61.2417 11.375 63.7542 13.0833 64.925 15.5417C67.7709 15.5667 69.9917 15.6958 71.975 16.4708C74.3426 17.397 76.4017 18.9709 77.9167 21.0125C79.4459 23.0708 80.1667 25.7083 81.15 29.3375L81.3042 29.9042L81.3125 29.9333L84.9542 43.7833L85.0042 43.7125C85.1792 43.9 85.3459 44.1 85.5084 44.3083C89.2625 49.1167 87.475 56.2667 83.9 70.5625C83.575 71.8667 83.275 73.075 82.9834 74.2L72.6625 61.8125L80.2875 50.625L78.1834 42.6167L68.5 56.8208L54.0667 39.5H59.65C67.5375 39.5 73.3167 39.5 77.5584 40.2375L75.2709 31.5375C74.0625 27.1042 73.6334 25.725 72.8959 24.7375C72.0811 23.6386 70.9736 22.791 69.7 22.2917C68.7834 21.9333 67.675 21.8292 64.9167 21.8C64.3245 23.0444 63.3917 24.0955 62.2266 24.8315C61.0614 25.5675 59.7115 25.9582 58.3334 25.9583H41.6667C40.2885 25.9582 38.9386 25.5675 37.7735 24.8315C36.6083 24.0955 35.6756 23.0444 35.0833 21.8C32.325 21.8292 31.2167 21.9333 30.3 22.2917C29.0249 22.7903 27.9159 23.638 27.1 24.7375C26.3667 25.725 25.9375 27.1042 24.725 31.5375L22.4417 40.2375C26.6833 39.5 32.4625 39.5 40.3542 39.5H45.9333L31.5 56.8208L21.8167 42.6167L19.7083 50.625L27.3333 61.8125L17.0125 74.2C16.7208 73.075 16.4208 71.8667 16.0958 70.5625C12.5208 56.2667 10.7333 49.1167 14.4875 44.3083C14.65 44.1 14.8208 43.9 14.9917 43.7125L15.0417 43.7833L18.6833 29.9333L18.6917 29.9042L18.8458 29.3375C19.8333 25.7083 20.5542 23.0667 22.0792 21.0083C23.5947 18.9683 25.6537 17.3958 28.0208 16.4708C30.0042 15.6958 32.2208 15.5667 35.0708 15.5458L35.075 15.5417Z" fill="#F69800"/>
<path d="M19.175 81.375C20.1458 83.8458 21.2583 85.5708 22.9 86.8541C26.2917 89.5 30.9792 89.5 40.3542 89.5H46.2167L31 67.1833L19.175 81.375ZM53.7834 89.5H59.6459C69.0209 89.5 73.7084 89.5 77.1 86.8541C78.7417 85.5708 79.8542 83.8458 80.825 81.3708L69 67.1833L53.7834 89.5ZM50 83.9541L35.1625 62.1875L50 44.3833L64.8375 62.1875L50 83.9541Z" fill="#F69800"/>
<path d="M136.9 30.62H128.995C128.088 30.62 127.635 30.8467 127.635 31.3V84H118.71C116.783 84 115.508 83.6883 114.885 83.065C114.318 82.4417 114.035 81.1383 114.035 79.155V27.39C114.035 25.4067 114.318 24.1033 114.885 23.48C115.508 22.8567 116.783 22.545 118.71 22.545H136.9V30.62ZM140.3 22.545H149.225C151.152 22.545 152.398 22.8567 152.965 23.48C153.588 24.1033 153.9 25.4067 153.9 27.39V79.07C153.9 81.0533 153.588 82.385 152.965 83.065C152.342 83.6883 151.095 84 149.225 84H140.3V55.525H131.035V47.45H140.3V22.545ZM173.988 41.5H184.188C184.528 41.5 184.698 41.6983 184.698 42.095V47.28C184.698 47.6767 184.471 47.875 184.018 47.875H180.193C178.833 47.875 178.04 48.13 177.813 48.64C177.586 49.3767 177.473 50.1983 177.473 51.105V77.455C177.473 79.3817 176.821 80.9683 175.518 82.215C174.271 83.405 172.401 84 169.908 84H164.723V50.935C164.723 47.5917 165.46 45.1833 166.933 43.71C168.463 42.2367 170.815 41.5 173.988 41.5ZM203.786 84H203.616C198.006 84 194.55 83.0367 193.246 81.11C192.623 80.2033 192.113 79.325 191.716 78.475C191.376 77.625 191.15 76.2933 191.036 74.48C190.753 71.1933 190.611 67.5383 190.611 63.515C190.611 59.4917 190.64 56.6017 190.696 54.845C190.753 53.0317 190.923 51.2183 191.206 49.405C191.546 47.535 191.971 46.2033 192.481 45.41C192.991 44.56 193.756 43.795 194.776 43.115C195.796 42.435 196.986 42.01 198.346 41.84C199.706 41.6133 201.463 41.5 203.616 41.5H203.786V84ZM213.646 70.57C217.443 70.57 220.333 70.57 222.316 70.57C224.3 70.57 225.32 70.5983 225.376 70.655C225.433 70.655 225.518 70.6833 225.631 70.74C225.801 70.74 225.915 70.7683 225.971 70.825C226.028 70.8817 226.085 70.9667 226.141 71.08C226.198 71.1367 226.226 71.25 226.226 71.42C226.34 71.8167 226.396 72.1283 226.396 72.355V74.905C226.396 80.9683 223.308 84 217.131 84H206.421V77.625H211.011C212.201 77.625 212.938 77.455 213.221 77.115C213.505 76.7183 213.646 76.0383 213.646 75.075V70.57ZM206.421 41.5H217.131C223.308 41.5 226.396 44.5317 226.396 50.595V56.375C222.6 56.375 219.71 56.375 217.726 56.375C215.743 56.375 214.723 56.375 214.666 56.375C214.61 56.3183 214.496 56.29 214.326 56.29C214.213 56.2333 214.128 56.1767 214.071 56.12C214.015 56.0633 213.958 56.0067 213.901 55.95C213.845 55.8367 213.816 55.7233 213.816 55.61C213.703 55.1567 213.646 54.8167 213.646 54.59V50.425C213.646 49.4617 213.505 48.81 213.221 48.47C212.938 48.0733 212.201 47.875 211.011 47.875H206.421V41.5Z" fill="white"/>
</svg>
