<svg width="384" height="179" viewBox="0 0 384 179" fill="none" xmlns="http://www.w3.org/2000/svg">
<rect x="64" y="89.0955" width="126" height="126" rx="29" transform="rotate(-45 64 89.0955)" fill="#F69800"/>
<path d="M150.862 126.538C152.4 127.977 154.791 127.977 156.328 126.538L183.871 100.766C186.52 98.2874 184.766 93.8455 181.138 93.8455H126.053C122.425 93.8455 120.671 98.2874 123.32 100.766L150.862 126.538Z" fill="#3F2314"/>
<path d="M289.9 71.62H281.995C281.088 71.62 280.635 71.8467 280.635 72.3V125H271.71C269.783 125 268.508 124.688 267.885 124.065C267.318 123.442 267.035 122.138 267.035 120.155V68.39C267.035 66.4067 267.318 65.1033 267.885 64.48C268.508 63.8567 269.783 63.545 271.71 63.545H289.9V71.62ZM293.3 63.545H302.225C304.152 63.545 305.398 63.8567 305.965 64.48C306.588 65.1033 306.9 66.4067 306.9 68.39V120.07C306.9 122.053 306.588 123.385 305.965 124.065C305.342 124.688 304.095 125 302.225 125H293.3V96.525H284.035V88.45H293.3V63.545ZM326.988 82.5H337.188C337.528 82.5 337.698 82.6983 337.698 83.095V88.28C337.698 88.6767 337.471 88.875 337.018 88.875H333.193C331.833 88.875 331.04 89.13 330.813 89.64C330.586 90.3767 330.473 91.1983 330.473 92.105V118.455C330.473 120.382 329.821 121.968 328.518 123.215C327.271 124.405 325.401 125 322.908 125H317.723V91.935C317.723 88.5917 318.46 86.1833 319.933 84.71C321.463 83.2367 323.815 82.5 326.988 82.5ZM356.786 125H356.616C351.006 125 347.55 124.037 346.246 122.11C345.623 121.203 345.113 120.325 344.716 119.475C344.376 118.625 344.15 117.293 344.036 115.48C343.753 112.193 343.611 108.538 343.611 104.515C343.611 100.492 343.64 97.6017 343.696 95.845C343.753 94.0317 343.923 92.2183 344.206 90.405C344.546 88.535 344.971 87.2033 345.481 86.41C345.991 85.56 346.756 84.795 347.776 84.115C348.796 83.435 349.986 83.01 351.346 82.84C352.706 82.6133 354.463 82.5 356.616 82.5H356.786V125ZM366.646 111.57C370.443 111.57 373.333 111.57 375.316 111.57C377.3 111.57 378.32 111.598 378.376 111.655C378.433 111.655 378.518 111.683 378.631 111.74C378.801 111.74 378.915 111.768 378.971 111.825C379.028 111.882 379.085 111.967 379.141 112.08C379.198 112.137 379.226 112.25 379.226 112.42C379.34 112.817 379.396 113.128 379.396 113.355V115.905C379.396 121.968 376.308 125 370.131 125H359.421V118.625H364.011C365.201 118.625 365.938 118.455 366.221 118.115C366.505 117.718 366.646 117.038 366.646 116.075V111.57ZM359.421 82.5H370.131C376.308 82.5 379.396 85.5317 379.396 91.595V97.375C375.6 97.375 372.71 97.375 370.726 97.375C368.743 97.375 367.723 97.375 367.666 97.375C367.61 97.3183 367.496 97.29 367.326 97.29C367.213 97.2333 367.128 97.1767 367.071 97.12C367.015 97.0633 366.958 97.0067 366.901 96.95C366.845 96.8367 366.816 96.7233 366.816 96.61C366.703 96.1567 366.646 95.8167 366.646 95.59V91.425C366.646 90.4617 366.505 89.81 366.221 89.47C365.938 89.0733 365.201 88.875 364.011 88.875H359.421V82.5Z" fill="white"/>
<path d="M17.51 121H17.34C11.73 121 8.27333 120.037 6.97 118.11C6.34667 117.203 5.83667 116.325 5.44 115.475C5.1 114.625 4.87333 113.293 4.76 111.48C4.47667 108.193 4.335 104.538 4.335 100.515C4.335 96.4917 4.36333 93.6017 4.42 91.845C4.47667 90.0317 4.64667 88.2183 4.93 86.405C5.27 84.535 5.695 83.2033 6.205 82.41C6.715 81.56 7.48 80.795 8.5 80.115C9.52 79.435 10.71 79.01 12.07 78.84C13.43 78.6133 15.1867 78.5 17.34 78.5H17.51V121ZM40.12 107.57V111.905C40.12 117.968 37.0317 121 30.855 121H20.145V114.625H24.735C25.925 114.625 26.6617 114.455 26.945 114.115C27.2283 113.718 27.37 113.038 27.37 112.075V109.355C27.37 108.505 27.455 108.023 27.625 107.91C27.8517 107.797 27.9933 107.74 28.05 107.74C28.1067 107.683 28.2483 107.655 28.475 107.655C28.7583 107.598 28.9567 107.57 29.07 107.57C32.7533 107.57 36.4367 107.57 40.12 107.57ZM20.145 78.5H30.005C33.915 78.5 36.5783 79.265 37.995 80.795C39.4117 82.325 40.12 84.5917 40.12 87.595V95.075C40.12 100.175 37.3433 102.725 31.79 102.725H19.295V96.35H23.885C25.245 96.35 26.1517 96.18 26.605 95.84C27.115 95.5 27.37 94.8483 27.37 93.885V87.425C27.37 86.4617 27.2283 85.81 26.945 85.47C26.6617 85.0733 25.925 84.875 24.735 84.875H20.145V78.5Z" fill="white"/>
</svg>
